<?xml version="1.0" encoding="UTF-8"?>
<svg width="315px" height="98px" viewBox="0 0 315 98" version="1.1" xmlns="http://www.w3.org/2000/svg" xmlns:xlink="http://www.w3.org/1999/xlink">
    <!-- Generator: Sketch 48.2 (47327) - http://www.bohemiancoding.com/sketch -->
    <title>HiExchange-logo</title>
    <desc>Created with Sketch.</desc>
    <defs></defs>
    <g id="Page-1" stroke="none" stroke-width="1" fill="none" fill-rule="evenodd">
        <g id="HiExchange-logo">
            <g id="Group-3" transform="translate(160.000000, 39.000000)" fill="#fff" fill-rule="nonzero">
                <path d="M39.046,19.144 C39.769,19.144 40.23,18.767 40.23,18.144 C40.229912,17.8456645 40.1013404,17.561819 39.8771405,17.364998 C39.6529407,17.1681769 39.3548343,17.0774494 39.059,17.116 L31.601,17.116 L31.601,11.074 L38.601,11.074 C39.311,11.074 39.758,10.71 39.758,10.085 C39.758,9.46 39.311,9.085 38.601,9.085 L31.601,9.085 L31.601,3.408 L39.059,3.408 C39.769,3.408 40.23,3.018 40.23,2.393 C40.23,1.768 39.77,1.378 39.06,1.378 L31.431,1.378 C29.918,1.378 29.313,1.924 29.313,3.304 L29.313,17.217 C29.313,18.597 29.918,19.143 31.431,19.143 L39.046,19.144 Z M54.422,19.274 C54.7277956,19.3148858 55.0364783,19.22304 55.2701813,19.0216312 C55.5038844,18.8202224 55.6402939,18.5284809 55.645,18.22 C55.6068002,17.8185115 55.4406376,17.4399131 55.171,17.14 L50.358,10.358 L55.158,3.304 C55.54,2.744 55.645,2.523 55.645,2.237 C55.6451544,1.93926144 55.5198474,1.6552387 55.2998317,1.45463617 C55.079816,1.25403365 54.7854586,1.15542115 54.489,1.183 C54.029,1.183 53.779,1.391 53.266,2.172 L49.166,8.458 L49.048,8.458 L44.97,2.172 C44.444,1.391 44.181,1.183 43.694,1.183 C43.3882044,1.14211419 43.0795217,1.23395997 42.8458187,1.4353688 C42.6121156,1.63677763 42.4757061,1.92851908 42.471,2.237 C42.5091998,2.63848852 42.6753624,3.01708693 42.945,3.317 L47.562,10.189 L42.84,17.152 C42.458,17.712 42.353,17.933 42.353,18.219 C42.3505932,18.5178327 42.4755147,18.80356 42.6965192,19.0047161 C42.9175238,19.2058722 43.2137113,19.3034342 43.511,19.273 C43.971,19.273 44.211,19.073 44.734,18.284 L48.851,12.076 L48.969,12.076 L53.169,18.284 C53.686,19.079 53.936,19.274 54.423,19.274 L54.422,19.274 Z M64.853,19.521 C66.7416871,19.6125692 68.587174,18.9366961 69.97,17.647 C70.7861968,16.9075573 71.3128979,15.9020048 71.456,14.81 C71.4787726,14.5324848 71.3776014,14.2591131 71.1796507,14.0632846 C70.9816999,13.8674562 70.7072536,13.7692375 70.43,13.795 C69.943,13.795 69.667,14.042 69.299,14.695 C68.5506156,16.4236981 66.8281921,17.5254321 64.945,17.48 C61.854,17.48 60.131,15.398 60.131,11.662 L60.131,8.858 C60.131,5.158 61.854,3.058 64.945,3.058 C66.8206744,3.04534951 68.5186581,4.16562383 69.245,5.895 C69.613,6.585 69.945,6.795 70.455,6.795 C70.7285683,6.81514009 70.9971807,6.71413252 71.189697,6.51872854 C71.3822132,6.32332455 71.4792106,6.05323811 71.455,5.78 C71.3106618,4.70457686 70.8016463,3.71125531 70.013,2.966 C68.6389498,1.62583035 66.7714727,0.91416918 64.854,1 C60.408,1 57.83,3.915 57.83,8.848 L57.83,11.672 C57.83,16.658 60.394,19.521 64.854,19.521 L64.853,19.521 Z M87.437,19.274 C87.7639773,19.2863366 88.0800484,19.1553216 88.3024111,18.9152775 C88.5247737,18.6752334 88.6312698,18.3500804 88.594,18.025 L88.594,2.497 C88.6347443,2.06054058 88.4248987,1.63863296 88.0522525,1.40778295 C87.6796062,1.17693294 87.2083938,1.17693294 86.8357475,1.40778295 C86.4631013,1.63863296 86.2532557,2.06054058 86.294,2.497 L86.294,8.94 L77.258,8.94 L77.258,2.497 C77.2987443,2.06054058 77.0888987,1.63863296 76.7162525,1.40778295 C76.3436062,1.17693294 75.8723938,1.17693294 75.4997475,1.40778295 C75.1271013,1.63863296 74.9172557,2.06054058 74.958,2.497 L74.958,18.024 C74.9172557,18.4604594 75.1271013,18.882367 75.4997475,19.113217 C75.8723938,19.3440671 76.3436062,19.3440671 76.7162525,19.113217 C77.0888987,18.882367 77.2987443,18.4604594 77.258,18.024 L77.258,10.97 L86.294,10.97 L86.294,18.024 C86.2536558,18.3475813 86.3572436,18.6725781 86.5773966,18.9131299 C86.7975496,19.1536817 87.1121193,19.2855877 87.438,19.274 L87.437,19.274 Z M104.737,19.313 C105.018565,19.3477791 105.301385,19.2588318 105.512356,19.0691492 C105.723328,18.8794666 105.841745,18.6076652 105.837,18.324 C105.827003,18.0471468 105.769149,17.7741146 105.666,17.517 L100.263,2.558 C99.934,1.647 99.474,1.23 98.632,1.23 C97.79,1.23 97.332,1.646 97.001,2.558 L91.595,17.513 C91.4930301,17.7749915 91.4352452,18.052089 91.424,18.333 C91.4210264,18.6135826 91.5393288,18.8817888 91.7485424,19.0687783 C91.9577561,19.2557678 92.2375101,19.3433335 92.516,19.309 C93.147,19.309 93.502,19.023 93.752,18.242 L95.265,13.804 L101.986,13.804 L103.499,18.242 C103.748,19.013 104.103,19.313 104.735,19.313 L104.737,19.313 Z M101.37,11.972 L95.885,11.972 L98.585,4.059 L98.677,4.059 L101.37,11.972 Z M120.97,19.272 C121.799,19.272 122.233,18.751 122.233,17.788 L122.233,2.497 C122.276883,2.17692395 122.17784,1.85373923 121.962154,1.61321078 C121.746468,1.37268233 121.435949,1.23913177 121.113,1.248 C120.403,1.248 120.013,1.73 120.013,2.497 L120.013,15.252 L119.895,15.252 L111.667,2.575 C111.128,1.755 110.72,1.247 110.036,1.247 C109.168,1.247 108.736,1.781 108.736,2.747 L108.736,18.027 C108.736,18.795 109.131,19.276 109.836,19.276 C110.541,19.276 110.936,18.794 110.936,18.027 L110.936,5.258 L111.041,5.258 L119.341,18.078 C119.94,18.987 120.295,19.274 120.966,19.274 L120.97,19.272 Z M133.124,19.519 C136.924,19.519 139.74,16.981 139.74,13.558 L139.74,11.558 C139.74,10.426 139.214,9.892 138.056,9.892 L133.899,9.892 C133.176,9.892 132.728,10.269 132.728,10.892 C132.728,11.515 133.175,11.881 133.899,11.881 L137.499,11.881 L137.499,13.599 C137.499,15.929 135.789,17.491 133.158,17.491 C130.027,17.491 128.173,15.343 128.173,11.699 L128.173,8.849 C128.173,5.149 129.935,3.057 133.013,3.057 C134.96,3.057 136.288,4.007 137.34,5.92 C137.695,6.571 137.998,6.792 138.498,6.792 C138.773108,6.80915555 139.041994,6.70533995 139.234193,6.50775931 C139.426392,6.31017867 139.522744,6.03852926 139.498,5.764 C139.335105,4.67529196 138.806019,3.67461315 137.998,2.927 C136.639139,1.60476019 134.791673,0.907070112 132.898,1.001 C128.452,1.001 125.874,3.916 125.874,8.823 L125.874,11.699 C125.872,16.593 128.582,19.521 133.12,19.521 L133.124,19.519 Z M153.064,19.142 C153.787,19.142 154.248,18.765 154.248,18.142 C154.247912,17.8436645 154.11934,17.559819 153.895141,17.362998 C153.670941,17.1661769 153.372834,17.0754494 153.077,17.114 L145.613,17.114 L145.613,11.074 L152.613,11.074 C153.323,11.074 153.77,10.71 153.77,10.085 C153.77,9.46 153.323,9.085 152.613,9.085 L145.613,9.085 L145.613,3.408 L153.071,3.408 C153.781,3.408 154.242,3.018 154.242,2.393 C154.242,1.768 153.784,1.378 153.074,1.378 L145.445,1.378 C143.932,1.378 143.327,1.925 143.327,3.304 L143.327,17.217 C143.327,18.597 143.932,19.143 145.445,19.143 L153.064,19.142 Z" id="EXCHANGE"></path>
                <path d="M13.538,19.521 C13.86467,19.5352416 14.1812509,19.4060161 14.404643,19.1672441 C14.6280352,18.9284722 14.7359278,18.6040004 14.7,18.279 L14.7,2.84 C14.7312064,2.40712153 14.5179524,1.99308272 14.147409,1.76712878 C13.7768655,1.54117485 13.3111345,1.54117485 12.940591,1.76712878 C12.5700476,1.99308272 12.3567936,2.40712153 12.388,2.84 L12.388,9.246 L3.312,9.246 L3.312,2.84 C3.34760968,2.51489629 3.23946874,2.19045305 3.01592778,1.95172745 C2.79238682,1.71300185 2.4757398,1.58380223 2.149,1.598 C1.82363045,1.58455698 1.50874514,1.71454125 1.2876015,1.95358424 C1.06645787,2.19262723 0.961324774,2.51665763 1,2.84 L1,18.279 C0.961324774,18.6023424 1.06645787,18.9263728 1.2876015,19.1654158 C1.50874514,19.4044587 1.82363045,19.534443 2.149,19.521 C2.47584034,19.5355431 2.79269949,19.4064493 3.01631947,19.1676393 C3.23993945,18.9288293 3.34796087,18.6041814 3.312,18.279 L3.312,11.265 L12.389,11.265 L12.389,18.279 C12.3503248,18.6023424 12.4554579,18.9263728 12.6766015,19.1654158 C12.8977451,19.4044587 13.2126305,19.534443 13.538,19.521 Z M19.914,3.788 C20.2938344,3.80233381 20.6628456,3.65981817 20.9344423,3.39389553 C21.2060389,3.12797289 21.3563125,2.7620523 21.35,2.382 C21.3296456,1.61762687 20.7041441,1.00855995 19.9395,1.00855995 C19.1748559,1.00855995 18.5493544,1.61762687 18.529,2.382 C18.5219996,2.75335141 18.6649849,3.11184741 18.9256332,3.37644776 C19.1862815,3.64104811 19.5425853,3.78941169 19.914,3.788 Z M19.839,19.521 C20.47,19.521 20.947,19.121 20.947,18.272 L20.947,6.83 C20.947,5.997 20.483,5.58 19.847,5.58 C19.5236793,5.5707855 19.2126898,5.70433858 18.9967379,5.94514132 C18.780786,6.18594406 18.6817616,6.50958754 18.726,6.83 L18.726,18.272 C18.6801824,18.5912512 18.7775704,18.9144522 18.9921415,19.1552422 C19.2067125,19.3960322 19.5165998,19.5298724 19.839,19.521 Z" id="Hi"></path>
            </g>
            <g id="Group" transform="translate(0.409000, 0.000000)">
                <path d="M61.615,5.117 L92.897,36.004 C96.2124132,39.2600923 98.0800615,43.7120546 98.0800615,48.359 C98.0800615,53.0059454 96.2124132,57.4579077 92.897,60.714 L61.49,91.725 C54.5435738,98.5480875 43.4114262,98.5480875 36.465,91.725 L5.183,60.837 C1.86758681,57.5809077 -6.14802942e-05,53.1289454 -6.14802942e-05,48.482 C-6.14802942e-05,43.8350546 1.86758681,39.3830923 5.183,36.127 L36.59,5.117 C43.5364262,-1.70608749 54.6685738,-1.70608749 61.615,5.117 Z" id="Rectangle-Copy-2" fill="#363D71"></path>
                <path d="M74.635,5.07 L106.667,36.698 C109.849691,39.8237831 111.64257,44.0975538 111.64257,48.5585 C111.64257,53.0194462 109.849691,57.2932169 106.667,60.419 L74.384,92.295 C67.7153783,98.8450354 57.0286217,98.8450354 50.36,92.295 L18.327,60.667 C15.1443092,57.5412169 13.3514298,53.2674462 13.3514298,48.8065 C13.3514298,44.3455538 15.1443092,40.0717831 18.327,36.946 L50.609,5.07 C57.2778643,-1.48134518 67.9661357,-1.48134518 74.635,5.07 Z" id="Rectangle-Copy-3" fill="#565B86"></path>
                <path d="M88.527,5.58 L119.934,36.591 C123.249413,39.8470923 125.117061,44.2990546 125.117061,48.946 C125.117061,53.5929454 123.249413,58.0449077 119.934,61.301 L88.527,92.31 C81.5805738,99.1330875 70.4484262,99.1330875 63.502,92.31 L32.095,61.3 C28.7795868,58.0439077 26.9119385,53.5919454 26.9119385,48.945 C26.9119385,44.2980546 28.7795868,39.8460923 32.095,36.59 L63.502,5.58 C70.4484262,-1.24308749 81.5805738,-1.24308749 88.527,5.58 Z" id="Rectangle-Copy" fill="#F49D3F"></path>
                <path d="M101.28257,4.91252659 L133.31457,36.5405266 C136.497261,39.6663097 138.29014,43.9400804 138.29014,48.4010266 C138.29014,52.8619728 136.497261,57.1357435 133.31457,60.2615266 L101.03257,92.1375266 C94.3639485,98.687562 83.677192,98.687562 77.0085702,92.1375266 L44.9755702,60.5095266 C41.7928794,57.3837435 40,53.1099728 40,48.6490266 C40,44.1880804 41.7928794,39.9143097 44.9755702,36.7885266 L77.2585702,4.91252659 C83.927192,-1.63750886 94.6139485,-1.63750886 101.28257,4.91252659 Z" id="Rectangle-Copy-9" fill-opacity="0.439999998" fill="#DBDBDB"></path>
            </g>
        </g>
    </g>
</svg>
